<svg xmlns="http://www.w3.org/2000/svg" xmlns:xlink="http://www.w3.org/1999/xlink" version="1.1" id="Layer_1" x="0px" y="0px" style="enable-background:new 0 0 595.28 841.89;" xml:space="preserve" viewBox="206.72 311.59 159.73 159.72">
<style type="text/css">
	.st0{fill:#FFFFFF;}
	.st1{fill:none;stroke:#000000;stroke-miterlimit:10;}
	.st2{fill:none;stroke:#000000;stroke-width:2;stroke-miterlimit:10;}
	.st3{fill:#F37231;}
</style>
<path class="st0" d="M344.45,471.31H228.72c-12.15,0-22-9.85-22-22V333.59c0-12.15,9.85-22,22-22h115.73c12.15,0,22,9.85,22,22  v115.73C366.45,461.46,356.6,471.31,344.45,471.31z"/>
<g>
	<g>
		<path class="st1" d="M318.69,379.95"/>
	</g>
	<g>
		<path class="st2" d="M295.69,391.46"/>
	</g>
	<path d="M320.83,365.59l-10.04-20.08c-1-2-3.04-3.26-5.27-3.26h-41.64c-3.26,0-5.9,2.64-5.9,5.9v86.6c0,3.26,2.64,5.9,5.9,5.9   h41.64c2.23,0,4.27-1.26,5.27-3.26l10.15-20.3c0.83-1.66,0.83-3.61,0-5.27l-8.86-17.73c-0.83-1.66-0.83-3.61,0-5.27l8.75-17.51   C321.73,369.51,321.73,367.39,320.83,365.59z M307.2,398.6l6.61,13.22c0.83,1.66,0.83,3.61,0,5.27L306.85,431   c-1,2-3.04,3.26-5.27,3.26h-31.3c-3.26,0-5.9-2.64-5.9-5.9v-73.82c0-3.26,2.64-5.9,5.9-5.9h31.3c2.23,0,4.27,1.26,5.27,3.26   l6.96,13.91c0.83,1.66,0.83,3.61,0,5.27l-6.61,13.22l-2.26,4.5c-0.83,1.66-0.83,3.62,0,5.28L307.2,398.6z"/>
	<polygon class="st3" points="303.62,391.45 293.72,411.26 264.38,411.26 264.38,371.65 293.72,371.65  "/>
	<g>
		<path d="M310.05,390.03c0.45,0.9,0.45,1.95,0,2.85l-2.85,5.72l-8.65,17.29c-0.54,1.08-1.65,1.77-2.86,1.77h-31.31    c-1.76,0-3.19-1.43-3.19-3.19v0c0-1.76,1.43-3.19,3.19-3.19h27.36c1.21,0,2.32-0.68,2.86-1.77l8.31-16.61    c0.45-0.9,0.45-1.96,0-2.86l-8.31-16.61c-0.54-1.08-1.65-1.77-2.86-1.77h-27.36c-1.76,0-3.19-1.43-3.19-3.19l0,0    c0-1.76,1.43-3.19,3.19-3.19h29.34c2.42,0,4.63,1.37,5.71,3.53l7.77,15.52L310.05,390.03z"/>
	</g>
</g>
</svg>